<svg viewBox="0 0 24 24" fill="none" xmlns="http://www.w3.org/2000/svg" id="icon"><path d="M12 24c6.627 0 12-5.373 12-12S18.627 0 12 0 0 5.373 0 12s5.373 12 12 12Z" fill="#fff"/><path d="M12 15.75a3.75 3.75 0 1 0 0-7.5 3.75 3.75 0 0 0 0 7.5Z" fill="#008"/><path d="M12 15.047a3.047 3.047 0 1 0 0-6.094 3.047 3.047 0 0 0 0 6.094Z" fill="#fff"/><path d="m12 8.484.273 2.497 1.485-2.026-1.012 2.3 2.299-1.013-2.026 1.485 2.497.273-2.497.273 2.026 1.485-2.3-1.012 1.013 2.299-1.485-2.026L12 15.516l-.273-2.497-1.485 2.026 1.012-2.3-2.299 1.013 2.026-1.485L8.484 12l2.497-.273-2.026-1.485 2.3 1.012-1.013-2.299 1.485 2.026L12 8.484Z" fill="#008"/><path fill-rule="evenodd" clip-rule="evenodd" d="M.683 8C2.33 3.34 6.775 0 12 0c5.225 0 9.67 3.34 11.317 8H.683Z" fill="#F93"/><path fill-rule="evenodd" clip-rule="evenodd" d="M23.317 16C21.67 20.66 17.225 24 12 24 6.775 24 2.33 20.66.683 16h22.634Z" fill="#128807"/></svg>