<svg viewBox="0 0 24 24" fill="none" xmlns="http://www.w3.org/2000/svg" id="icon"><path fill="transparent" d="M0 0h24v24H0z"/><path fill-rule="evenodd" clip-rule="evenodd" d="M18.32 7.36c-1.26-1.868-3.813-1.804-4.99.147l-.473.787h-1.713l-.475-.787C9.493 5.556 6.941 5.492 5.68 7.36c-1.044 1.547-.863 3.697.395 5.01L12 18.555l5.926-6.186c1.258-1.313 1.439-3.463.394-5.01ZM12 5.92c-2.069-2.64-6.02-2.58-7.978.32-1.561 2.312-1.314 5.507.607 7.513L12 21.445l7.37-7.692c1.922-2.006 2.17-5.2.608-7.513-1.958-2.9-5.91-2.96-7.978-.32Z" fill="#ffffff"/></svg>