<svg xmlns="http://www.w3.org/2000/svg" fill="none" viewBox="0 0 40 24" id="icon"><path fill="#0099DF" fill-rule="evenodd" d="M31.43 16.336v-.271h-.07l-.083.186-.081-.186h-.071v.271h.05v-.204l.076.176h.053l.076-.177v.205h.05Zm-.45 0v-.225h.092v-.046h-.232v.046h.091v.225h.05Z" clip-rule="evenodd"/><path fill="#6C6BBD" fill-rule="evenodd" d="M17.26 6.498h6.124v11.006h-6.125V6.498Z" clip-rule="evenodd"/><path fill="#EB001B" fill-rule="evenodd" d="M17.651 12a6.988 6.988 0 0 1 2.674-5.503A7 7 0 0 0 9 12a7 7 0 0 0 11.325 5.503A6.988 6.988 0 0 1 17.65 12Z" clip-rule="evenodd"/><path fill="#0099DF" fill-rule="evenodd" d="M31.644 12a7 7 0 0 1-11.326 5.503A6.987 6.987 0 0 0 22.992 12a6.987 6.987 0 0 0-2.674-5.503A7 7 0 0 1 31.643 12Z" clip-rule="evenodd"/></svg>