<svg xmlns="http://www.w3.org/2000/svg" fill="none" viewBox="0 0 40 24" id="icon"><path fill="#fff" d="M10.195 17.58v-5.011h5.308l.57.742.588-.742h19.256v4.665s-.503.34-1.085.346H24.168l-.643-.79v.79h-2.103v-1.35s-.288.188-.908.188h-.717v1.162h-3.184l-.57-.759-.575.759h-5.273ZM4 8.79 5.197 6h2.07l.678 1.561V6h2.573l.403 1.13.39-1.13H22.86v.566S23.467 6 24.462 6l3.747.013.669 1.542V6h2.153l.592.886V6h2.172v5.014h-2.172l-.567-.89v.89h-3.16l-.318-.79h-.85l-.314.79H24.27c-.857 0-1.408-.557-1.408-.557v.557h-3.238l-.643-.79v.79H6.96l-.317-.79h-.848l-.317.79H4V8.79Z"/><path fill="#016FD0" d="m5.619 6.62-1.613 3.754h1.05l.297-.752h1.731l.298.752h1.075L6.844 6.621H5.62Zm.598.871.528 1.312H5.69l.528-1.312Zm2.349 2.879V6.619l1.494.006.867 2.419.848-2.425h1.482v3.753h-.938V7.606l-.995 2.765h-.822l-.998-2.765v2.765h-.938Zm5.334 0V6.619h3.062v.838H14.85V8.1h2.06v.79h-2.063v.666h2.112v.816h-3.06Zm3.603-3.75v3.754h.937V9.04h.394l1.126 1.334h1.146L19.87 8.992A1.143 1.143 0 0 0 20.9 7.84c0-.79-.62-1.216-1.311-1.216l-2.086-.003Zm.937.84h1.072c.256 0 .445.2.445.393 0 .25-.243.393-.432.393H18.44V7.46Zm3.801 2.91h-.956V6.619h.956v3.753Zm2.272 0h-.208c-1.001 0-1.606-.786-1.606-1.858 0-1.098.601-1.891 1.862-1.891h1.037v.89h-1.072c-.512 0-.877.4-.877 1.01 0 .727.416 1.03 1.011 1.03h.247l-.394.82Zm2.042-3.75-1.613 3.75h1.05l.297-.751h1.731l.298.752h1.072l-1.613-3.753-1.222.003Zm.595.871.528 1.312h-1.056l.528-1.312Zm2.348 2.879V6.619h1.194l1.523 2.358V6.618h.938v3.753h-1.156l-1.561-2.42v2.42h-.938Zm-18.66 6.567v-3.754H13.9v.839h-2.112v.643h2.064v.79h-2.064v.666H13.9v.816h-3.062Zm14.997 0v-3.754h3.062v.839h-2.112v.643h2.054v.79h-2.054v.666h2.112v.816h-3.062Zm-11.817 0 1.491-1.853-1.526-1.9h1.18l.91 1.174.911-1.175h1.136l-1.507 1.875 1.495 1.875h-1.181l-.883-1.155-.861 1.155-1.165.004Zm4.202-3.75v3.753h.963v-1.184h.988c.835 0 1.469-.445 1.469-1.306 0-.713-.496-1.26-1.347-1.26h-2.074v-.003Zm.963.848h1.04c.268 0 .463.166.463.431 0 .25-.192.432-.467.432h-1.037v-.864Zm2.86-.852v3.754h.938v-1.335h.393l1.126 1.335h1.146l-1.235-1.383a1.143 1.143 0 0 0 1.03-1.152c0-.79-.62-1.215-1.312-1.215l-2.086-.004Zm.94.842h1.073c.255 0 .444.201.444.393 0 .25-.243.394-.432.394h-1.084v-.787Zm6.349 2.095h1.878c.279 0 .397-.15.397-.313 0-.157-.118-.317-.397-.317h-.848c-.736 0-1.148-.448-1.148-1.123 0-.601.377-1.18 1.472-1.18h1.827l-.394.844h-1.58c-.301 0-.394.16-.394.31 0 .158.115.327.345.327h.89c.822 0 1.177.467 1.177 1.078 0 .656-.396 1.194-1.222 1.194h-2.003v-.82Zm3.443 0h1.878c.278 0 .397-.15.397-.313 0-.157-.119-.317-.397-.317h-.848c-.736 0-1.149-.448-1.149-1.123 0-.601.378-1.18 1.472-1.18h1.827l-.393.844H33.98c-.3 0-.394.16-.394.31 0 .158.116.327.346.327h.89c.822 0 1.177.467 1.177 1.078 0 .656-.397 1.194-1.222 1.194h-2.003v-.82Z"/></svg>