<svg xmlns="http://www.w3.org/2000/svg" fill="none" viewBox="0 0 40 24" id="icon"><path fill="#1A1F71" fill-rule="evenodd" d="M20.48 10.89c-.015 1.26 1.123 1.963 1.981 2.38.881.43 1.177.705 1.174 1.088-.007.587-.703.846-1.355.856-1.137.018-1.797-.307-2.323-.552l-.41 1.916c.528.243 1.504.455 2.516.464 2.376 0 3.931-1.173 3.94-2.992.009-2.308-3.193-2.435-3.171-3.467.007-.313.306-.647.96-.732.324-.042 1.217-.075 2.23.391l.398-1.854A6.063 6.063 0 0 0 24.303 8c-2.236 0-3.81 1.189-3.822 2.89Zm9.762-2.73c-.434 0-.8.253-.963.641l-3.394 8.105h2.374l.473-1.306h2.901l.274 1.306H34L32.174 8.16h-1.932Zm.332 2.362.685 3.284h-1.877l1.192-3.284ZM17.602 8.16l-1.872 8.746h2.263l1.87-8.746h-2.26Zm-3.347 0L11.9 14.113l-.953-5.062c-.112-.565-.553-.891-1.043-.891h-3.85L6 8.414c.79.171 1.688.448 2.232.744.333.18.428.339.538.768l1.804 6.98h2.391l3.666-8.746h-2.376Z" clip-rule="evenodd"/></svg>