<svg xmlns="http://www.w3.org/2000/svg" fill="none" viewBox="0 0 32 32" id="icon"><path fill="#ffffff" d="M4.764 1.09c-.173.026-.34.665-.676.999-.245.24-.552.226-.714.523-.062.11-.042.3-.112.481-.137.365-.62.397-.62.794 0 .428.402.51.752.814.274.244.3.413.63.532.283.095.703-.218 1.081-.105.31.092.607.158.678.477.061.294-.005.75-.381.697-.127-.015-.678-.2-1.353-.127-.816.092-1.747.358-1.838 1.268-.05.508.579 1.107 1.186.985.42-.082.221-.577.45-.817.3-.309 1.997 1.075 3.575 1.075.665 0 1.16-.168 1.65-.682.046-.04.102-.124.173-.13a.621.621 0 0 1 .222.1c1.27 1.022 2.232 3.072 6.904 3.095.657.004 1.405.318 2.017.875.545.504.863 1.289 1.173 2.084.468 1.194 1.306 2.355 2.576 3.647.07.07 1.116.882 1.2.943.012.01.09.192.063.295-.031.775-.144 3.027 1.536 3.13.41.02.303-.268.303-.467-.001-.392-.073-.782.134-1.184.283-.552-.6-.807-.574-2.001.018-.891-.73-.74-1.11-1.418-.218-.393-.413-.601-.399-1.082.086-2.706-.576-4.485-.905-4.922-.258-.33-.47-.46-.236-.612 1.402-.927 1.72-1.788 1.72-1.788.745-1.752 1.416-3.352 2.34-4.057.186-.146.664-.502.957-.642.862-.406 1.316-.653 1.567-.897.396-.385.71-1.191.33-1.68-.473-.602-1.29-.124-1.65.09-2.578 1.53-2.957 4.227-3.85 5.776-.712 1.238-1.87 2.147-2.905 2.222-.776.057-1.613-.1-2.446-.466-2.026-.888-3.134-2.034-3.396-2.237-.544-.42-4.769-4.568-8.193-4.738 0 0-.425-.85-.532-.864-.25-.033-.506.507-.69.57-.172.057-.462-.584-.637-.556Zm1.853 25.268H5.03v5.019H3.844v-5.019H2.256V25.3h4.361v1.058ZM11.97 25.3c.314 0 .593.051.837.154.245.096.45.23.615.4.17.166.298.362.384.59.09.222.136.46.136.717 0 .216-.031.412-.094.588a1.484 1.484 0 0 1-.239.453 1.699 1.699 0 0 1-.776.555l1.357 2.62h-1.374l-1.187-2.424h-.853v2.424H9.59V25.3h2.38Zm-1.194 1.058v1.596h1.127c.261 0 .469-.074.623-.222a.77.77 0 0 0 .23-.58.742.742 0 0 0-.23-.572c-.154-.148-.362-.222-.623-.222h-1.127Zm11.097 5.019h-1.246L20.27 30.3h-2.15l-.368 1.076h-1.246l2.22-6.077h.93l2.218 6.077Zm-3.43-2.074h1.493l-.742-2.202-.752 2.202Zm8.133-4.054c.568 0 1.055.162 1.459.486.404.319.66.797.768 1.434H27.6a1.255 1.255 0 0 0-.342-.614c-.16-.165-.387-.248-.682-.248-.166 0-.314.029-.444.085a.941.941 0 0 0-.46.444c-.035.08-.064.182-.087.308-.022.125-.04.284-.05.478-.012.187-.018.426-.018.716s.006.532.017.726c.012.188.029.344.052.47.022.124.05.227.085.306a.944.944 0 0 0 .46.444c.131.057.28.086.445.086.295 0 .523-.08.682-.24a1.31 1.31 0 0 0 .342-.622h1.203c-.108.637-.364 1.118-.768 1.442-.404.319-.89.478-1.46.478-.352 0-.66-.054-.921-.162a2.357 2.357 0 0 1-.709-.478 1.946 1.946 0 0 1-.358-.478 2.299 2.299 0 0 1-.18-.538 5.423 5.423 0 0 1-.068-.648 32.972 32.972 0 0 1 0-1.57 5.15 5.15 0 0 1 .069-.64c.04-.2.1-.382.179-.547.085-.165.205-.324.358-.478a2.23 2.23 0 0 1 1.63-.64Z"/></svg>