<svg xmlns="http://www.w3.org/2000/svg" fill="none" viewBox="0 0 32 32" id="icon"><path fill="#ffffff" d="M4.764 1.09c-.173.026-.34.665-.676.999-.245.24-.552.226-.714.523-.062.11-.042.3-.112.481-.137.365-.62.397-.62.794 0 .428.402.51.752.814.274.244.3.413.63.532.283.095.703-.218 1.081-.105.31.092.607.158.678.477.061.294-.005.75-.381.697-.127-.015-.678-.2-1.353-.127-.816.092-1.747.358-1.838 1.268-.05.508.579 1.107 1.186.985.42-.082.221-.577.45-.817.3-.309 1.997 1.075 3.575 1.075.665 0 1.16-.168 1.65-.682.046-.04.102-.124.173-.13a.621.621 0 0 1 .222.1c1.27 1.022 2.232 3.072 6.904 3.095.657.004 1.405.318 2.017.875.545.504.863 1.289 1.173 2.084.468 1.194 1.306 2.355 2.576 3.647.07.07 1.116.882 1.2.943.012.01.09.192.063.295-.031.775-.144 3.027 1.536 3.13.41.02.303-.268.303-.467-.001-.392-.073-.782.134-1.184.283-.552-.6-.807-.574-2.001.018-.891-.73-.74-1.11-1.418-.218-.393-.413-.601-.399-1.082.086-2.706-.576-4.485-.905-4.922-.258-.33-.47-.46-.236-.612 1.402-.927 1.72-1.788 1.72-1.788.745-1.752 1.416-3.352 2.34-4.057.186-.146.664-.502.957-.642.862-.406 1.316-.653 1.567-.897.396-.385.71-1.191.33-1.68-.473-.602-1.29-.124-1.65.09-2.578 1.53-2.957 4.227-3.85 5.776-.712 1.238-1.87 2.147-2.905 2.222-.776.057-1.613-.1-2.446-.466-2.026-.888-3.134-2.034-3.396-2.237-.544-.42-4.769-4.568-8.193-4.738 0 0-.425-.85-.532-.864-.25-.033-.506.507-.69.57-.172.057-.462-.584-.637-.556Zm5.638 30.287H9.156L8.798 30.3h-2.15l-.368 1.076H5.034l2.22-6.077h.93l2.218 6.077Zm-3.43-2.074h1.493L7.723 27.1l-.751 2.202Zm8.532-4.003c.313 0 .594.051.845.154.25.096.46.233.631.41.17.17.302.372.393.605.09.228.136.47.136.726s-.045.5-.136.734a1.85 1.85 0 0 1-.393.606c-.17.17-.381.307-.631.41-.25.096-.532.144-.845.144h-1.17v2.288h-1.186V25.3h2.356Zm-1.17 1.058v1.673h1.11c.273 0 .486-.077.64-.23a.803.803 0 0 0 .239-.606c0-.256-.08-.458-.239-.606-.154-.154-.367-.23-.64-.23h-1.11Zm8.534-1.058c.313 0 .595.051.845.154.25.096.461.233.632.41.17.17.301.372.392.605a2.005 2.005 0 0 1 0 1.46c-.09.227-.221.43-.392.606-.17.17-.381.307-.632.41-.25.096-.532.144-.845.144H21.7v2.288h-1.186V25.3h2.355ZM21.7 26.358v1.673h1.11c.273 0 .486-.077.64-.23a.803.803 0 0 0 .239-.606c0-.256-.08-.458-.24-.606-.153-.154-.366-.23-.64-.23H21.7Z"/></svg>