<svg xmlns="http://www.w3.org/2000/svg" fill="none" viewBox="0 0 24 24" id="icon"><path fill="#FFFFFF" fill-rule="evenodd" d="M21.368 4.505a3.038 3.038 0 0 1 2.127 2.14c.505 1.882.505 5.81.505 5.81s0 3.927-.491 5.809c-.287 1.05-1.091 1.868-2.128 2.14C19.5 20.91 12 20.91 12 20.91s-7.5 0-9.368-.505a3.037 3.037 0 0 1-2.127-2.14C0 16.382 0 12.454 0 12.454s0-3.927.49-5.809c.287-1.05 1.091-1.868 2.128-2.14C4.5 4 11.999 4 11.999 4s7.5 0 9.369.505Zm-5.55 7.95L9.545 8.882v7.145l6.273-3.572Z" clip-rule="evenodd"/></svg>