<svg xmlns="http://www.w3.org/2000/svg" fill="none" viewBox="0 0 24 24" id="icon"><path fill="#ffffff" d="M22.957 5.017a8.983 8.983 0 0 1-2.59.728 4.641 4.641 0 0 0 1.983-2.56 9.177 9.177 0 0 1-2.866 1.113 4.44 4.44 0 0 0-3.291-1.465c-2.492 0-4.51 2.071-4.51 4.621 0 .367.041.72.116 1.057C8.05 8.33 4.727 6.483 2.503 3.693a4.62 4.62 0 0 0-.61 2.327 4.657 4.657 0 0 0 2.005 3.85 4.411 4.411 0 0 1-2.042-.58v.057c0 2.241 1.552 4.111 3.617 4.538a4.473 4.473 0 0 1-2.027.079c.577 1.836 2.24 3.174 4.22 3.211A8.905 8.905 0 0 1 1 19.091a12.6 12.6 0 0 0 6.927 2.076c8.299 0 12.832-7.045 12.832-13.145 0-.197 0-.395-.014-.592A9.25 9.25 0 0 0 23 5.035l-.043-.018Z"/></svg>