<svg xmlns="http://www.w3.org/2000/svg" fill="none" viewBox="0 0 24 24" id="icon"><path fill="#ffffff" d="M1 12c0 4.504 2.708 8.374 6.584 10.075-.03-.768-.005-1.69.192-2.526l1.415-5.994s-.351-.702-.351-1.74c0-1.63.944-2.848 2.121-2.848 1 0 1.484.752 1.484 1.652 0 1.005-.642 2.51-.971 3.903-.276 1.167.585 2.119 1.736 2.119 2.084 0 3.488-2.677 3.488-5.848 0-2.411-1.624-4.216-4.578-4.216-3.336 0-5.415 2.489-5.415 5.268 0 .958.283 1.634.725 2.158.204.24.232.337.158.613-.053.202-.174.69-.224.882-.073.279-.299.379-.55.276-1.538-.628-2.253-2.31-2.253-4.203 0-3.124 2.635-6.871 7.861-6.871 4.2 0 6.964 3.039 6.964 6.301 0 4.315-2.399 7.539-5.935 7.539-1.188 0-2.305-.642-2.687-1.371 0 0-.639 2.534-.774 3.024-.234.848-.69 1.695-1.107 2.356.989.292 2.034.451 3.117.451 6.075 0 11-4.925 11-11S18.075 1 12 1 1 5.925 1 12Z"/></svg>